<svg viewBox="0 0 1752.86669921875 400" xmlns="http://www.w3.org/2000/svg"><g><g><g><g><g><line x1="49.98400115966797" y1="378.6199998855591" x2="44.98400115966797" y2="378.6199998855591" style="visibility: inherit;" fill="rgb(0, 0, 0)" stroke="rgb(204, 204, 204)" stroke-width="1px"></line><line x1="49.98400115966797" y1="331.2924998998642" x2="44.98400115966797" y2="331.2924998998642" style="visibility: inherit;" fill="rgb(0, 0, 0)" stroke="rgb(204, 204, 204)" stroke-width="1px"></line><line x1="49.98400115966797" y1="283.9649999141693" x2="44.98400115966797" y2="283.9649999141693" style="visibility: inherit;" fill="rgb(0, 0, 0)" stroke="rgb(204, 204, 204)" stroke-width="1px"></line><line x1="49.98400115966797" y1="236.6374999284744" x2="44.98400115966797" y2="236.6374999284744" style="visibility: inherit;" fill="rgb(0, 0, 0)" stroke="rgb(204, 204, 204)" stroke-width="1px"></line><line x1="49.98400115966797" y1="189.3099999427795" x2="44.98400115966797" y2="189.3099999427795" style="visibility: inherit;" fill="rgb(0, 0, 0)" stroke="rgb(204, 204, 204)" stroke-width="1px"></line><line x1="49.98400115966797" y1="141.98249995708466" x2="44.98400115966797" y2="141.98249995708466" style="visibility: inherit;" fill="rgb(0, 0, 0)" stroke="rgb(204, 204, 204)" stroke-width="1px"></line><line x1="49.98400115966797" y1="94.65499997138977" x2="44.98400115966797" y2="94.65499997138977" style="visibility: inherit;" fill="rgb(0, 0, 0)" stroke="rgb(204, 204, 204)" stroke-width="1px"></line><line x1="49.98400115966797" y1="47.327499985694885" x2="44.98400115966797" y2="47.327499985694885" style="visibility: inherit;" fill="rgb(0, 0, 0)" stroke="rgb(204, 204, 204)" stroke-width="1px"></line><line x1="49.98400115966797" y1="0" x2="44.98400115966797" y2="0" style="visibility: inherit;" fill="rgb(0, 0, 0)" stroke="rgb(204, 204, 204)" stroke-width="1px"></line></g><g transform="translate(39.98400115966797, 0)"><text style="text-anchor: end; visibility: hidden; font-family: &quot;Helvetica Neue&quot;, sans-serif; font-size: 12px; font-weight: 200;" x="0" y="378.6199998855591" dx="0em" dy="0.3em" fill="rgb(50, 49, 63)" stroke="none" stroke-width="1px">-0.1</text><text style="text-anchor: end; visibility: inherit; font-family: &quot;Helvetica Neue&quot;, sans-serif; font-size: 12px; font-weight: 200;" x="0" y="331.2924998998642" dx="0em" dy="0.3em" fill="rgb(50, 49, 63)" stroke="none" stroke-width="1px">0</text><text style="text-anchor: end; visibility: inherit; font-family: &quot;Helvetica Neue&quot;, sans-serif; font-size: 12px; font-weight: 200;" x="0" y="283.9649999141693" dx="0em" dy="0.3em" fill="rgb(50, 49, 63)" stroke="none" stroke-width="1px">0.1</text><text style="text-anchor: end; visibility: inherit; font-family: &quot;Helvetica Neue&quot;, sans-serif; font-size: 12px; font-weight: 200;" x="0" y="236.6374999284744" dx="0em" dy="0.3em" fill="rgb(50, 49, 63)" stroke="none" stroke-width="1px">0.2</text><text style="text-anchor: end; visibility: inherit; font-family: &quot;Helvetica Neue&quot;, sans-serif; font-size: 12px; font-weight: 200;" x="0" y="189.3099999427795" dx="0em" dy="0.3em" fill="rgb(50, 49, 63)" stroke="none" stroke-width="1px">0.3</text><text style="text-anchor: end; visibility: inherit; font-family: &quot;Helvetica Neue&quot;, sans-serif; font-size: 12px; font-weight: 200;" x="0" y="141.98249995708466" dx="0em" dy="0.3em" fill="rgb(50, 49, 63)" stroke="none" stroke-width="1px">0.4</text><text style="text-anchor: end; visibility: inherit; font-family: &quot;Helvetica Neue&quot;, sans-serif; font-size: 12px; font-weight: 200;" x="0" y="94.65499997138977" dx="0em" dy="0.3em" fill="rgb(50, 49, 63)" stroke="none" stroke-width="1px">0.5</text><text style="text-anchor: end; visibility: inherit; font-family: &quot;Helvetica Neue&quot;, sans-serif; font-size: 12px; font-weight: 200;" x="0" y="47.327499985694885" dx="0em" dy="0.3em" fill="rgb(50, 49, 63)" stroke="none" stroke-width="1px">0.6</text><text style="text-anchor: end; visibility: hidden; font-family: &quot;Helvetica Neue&quot;, sans-serif; font-size: 12px; font-weight: 200;" x="0" y="0" dx="0em" dy="0.3em" fill="rgb(50, 49, 63)" stroke="none" stroke-width="1px">0.7</text></g><line x1="49.98400115966797" y1="0" x2="49.98400115966797" y2="378.6199998855591" fill="rgb(0, 0, 0)" stroke="rgb(204, 204, 204)" stroke-width="1px"></line></g></g><g transform="translate(49, 0)" clip-path="url(#clip_0)"><clipPath id="clip_0"><rect width="1702" height="378"></rect></clipPath><g><g><g><line x1="0" y1="0" x2="0" y2="378.6199998855591" fill="rgb(0, 0, 0)" stroke="rgb(60, 60, 60)" stroke-width="1px" opacity="0.25"></line><line x1="154.80781807639383" y1="0" x2="154.80781807639383" y2="378.6199998855591" fill="rgb(0, 0, 0)" stroke="rgb(60, 60, 60)" stroke-width="1px" opacity="0.25"></line><line x1="309.61563615278766" y1="0" x2="309.61563615278766" y2="378.6199998855591" fill="rgb(0, 0, 0)" stroke="rgb(60, 60, 60)" stroke-width="1px" opacity="0.25"></line><line x1="464.4234542291814" y1="0" x2="464.4234542291814" y2="378.6199998855591" fill="rgb(0, 0, 0)" stroke="rgb(60, 60, 60)" stroke-width="1px" opacity="0.25"></line><line x1="619.2312723055753" y1="0" x2="619.2312723055753" y2="378.6199998855591" fill="rgb(0, 0, 0)" stroke="rgb(60, 60, 60)" stroke-width="1px" opacity="0.25"></line><line x1="774.039090381969" y1="0" x2="774.039090381969" y2="378.6199998855591" fill="rgb(0, 0, 0)" stroke="rgb(60, 60, 60)" stroke-width="1px" opacity="0.25"></line><line x1="928.8469084583628" y1="0" x2="928.8469084583628" y2="378.6199998855591" fill="rgb(0, 0, 0)" stroke="rgb(60, 60, 60)" stroke-width="1px" opacity="0.25"></line><line x1="1083.6547265347567" y1="0" x2="1083.6547265347567" y2="378.6199998855591" fill="rgb(0, 0, 0)" stroke="rgb(60, 60, 60)" stroke-width="1px" opacity="0.25"></line><line x1="1238.4625446111506" y1="0" x2="1238.4625446111506" y2="378.6199998855591" fill="rgb(0, 0, 0)" stroke="rgb(60, 60, 60)" stroke-width="1px" opacity="0.25"></line><line x1="1393.2703626875443" y1="0" x2="1393.2703626875443" y2="378.6199998855591" fill="rgb(0, 0, 0)" stroke="rgb(60, 60, 60)" stroke-width="1px" opacity="0.25"></line><line x1="1548.078180763938" y1="0" x2="1548.078180763938" y2="378.6199998855591" fill="rgb(0, 0, 0)" stroke="rgb(60, 60, 60)" stroke-width="1px" opacity="0.25"></line><line x1="1702.885998840332" y1="0" x2="1702.885998840332" y2="378.6199998855591" fill="rgb(0, 0, 0)" stroke="rgb(60, 60, 60)" stroke-width="1px" opacity="0.25"></line></g><g><line x1="0" y1="378.6199998855591" x2="1702.885998840332" y2="378.6199998855591" fill="rgb(0, 0, 0)" stroke="rgb(60, 60, 60)" stroke-width="1px" opacity="0.25"></line><line x1="0" y1="331.2924998998642" x2="1702.885998840332" y2="331.2924998998642" fill="rgb(0, 0, 0)" stroke="rgb(60, 60, 60)" stroke-width="1px" opacity="0.25"></line><line x1="0" y1="283.9649999141693" x2="1702.885998840332" y2="283.9649999141693" fill="rgb(0, 0, 0)" stroke="rgb(60, 60, 60)" stroke-width="1px" opacity="0.25"></line><line x1="0" y1="236.6374999284744" x2="1702.885998840332" y2="236.6374999284744" fill="rgb(0, 0, 0)" stroke="rgb(60, 60, 60)" stroke-width="1px" opacity="0.25"></line><line x1="0" y1="189.3099999427795" x2="1702.885998840332" y2="189.3099999427795" fill="rgb(0, 0, 0)" stroke="rgb(60, 60, 60)" stroke-width="1px" opacity="0.25"></line><line x1="0" y1="141.98249995708466" x2="1702.885998840332" y2="141.98249995708466" fill="rgb(0, 0, 0)" stroke="rgb(60, 60, 60)" stroke-width="1px" opacity="0.25"></line><line x1="0" y1="94.65499997138977" x2="1702.885998840332" y2="94.65499997138977" fill="rgb(0, 0, 0)" stroke="rgb(60, 60, 60)" stroke-width="1px" opacity="0.25"></line><line x1="0" y1="47.327499985694885" x2="1702.885998840332" y2="47.327499985694885" fill="rgb(0, 0, 0)" stroke="rgb(60, 60, 60)" stroke-width="1px" opacity="0.25"></line><line x1="0" y1="0" x2="1702.885998840332" y2="0" fill="rgb(0, 0, 0)" stroke="rgb(60, 60, 60)" stroke-width="1px" opacity="0.25"></line></g></g></g><g><g><line x1="0" y1="331.2924998998642" x2="1702.885998840332" y2="331.2924998998642" fill="rgb(0, 0, 0)" stroke="rgb(153, 153, 153)" stroke-width="1.5px"></line></g></g><g><g><line x1="154.80781807639383" y1="0" x2="154.80781807639383" y2="378.6199998855591" fill="rgb(0, 0, 0)" stroke="rgb(153, 153, 153)" stroke-width="1.5px"></line></g></g><g><g><g><g><g><path style="fill: none;" stroke="rgb(255, 112, 67)" stroke-width="2px" d="M154.80781807639383,322.41859329992906L170.2885998840332,309.7547895487421L185.76938169167258,293.42748224510336L201.25016349931195,277.1845107080298L216.73094530695133,261.2018809137713L232.2117271145907,247.2960963743824L247.69250892223008,232.441409822666L263.17329072986945,219.40686646180325L278.65407253750885,207.2455596443739L294.13485434514826,196.15893983946157L309.61563615278766,187.76878288669354L325.096417960427,179.84908046904883L340.5771997680664,172.26494014025218L356.05798157570575,166.12224749611065L371.53876338334516,160.66409686105808L387.0195451909845,156.20732914607626L402.5003269986239,151.69981974260472L417.9811088062633,148.64081330828586L433.46189061390265,146.3323049005404L448.942672421542,143.1724426196909L464.4234542291814,137.9044426483174L479.9042360368208,133.79714942956434L495.38501784446015,130.8003742571046L510.86579965209955,128.4698864997888L526.3465814597389,126.12504912468535L541.8273632673784,123.94907710245991L557.3081450750177,121.87442292575389L572.788926882657,120.33383359376575L588.2697086902965,118.87704512633712L603.7504904979359,117.88465654706408L619.2312723055753,116.52015088610472L634.7120541132147,115.10985155170982L650.192835920854,114.02703473735392L665.6736177284935,112.0758368152105L681.1543995361328,111.08260028785236L696.6351813437722,109.83590164004801L712.1159631514115,109.7386391992274L727.5967449590509,109.32532300148335L743.0775267666903,108.24910564302593L758.5583085743297,107.66253031672022L774.039090381969,106.54151256902895L789.5198721896085,105.63226464662233L805.0006539972478,104.61344134481504L820.4814358048872,103.94299227675361L835.9622176125266,102.35753082272356L851.442999420166,101.28793813421578L866.9237812278053,100.46870597592658L882.4045630354448,99.85884522290445L897.885344843084,99.37461295491056L913.3661266507235,98.19667958425282L928.8469084583628,97.48991956186421L944.3276902660023,96.53342827089233L959.8084720736416,95.72289622205705L975.2892538812811,94.88162390231531L990.7700356889203,94.02190742002938L1006.2508174965599,93.15111315646146L1021.7315993041991,92.2145227788468L1037.2123811118386,92.125843100785L1052.6931629194778,91.42187855834288L1068.1739447271173,91.3544642070741L1083.6547265347567,91.49148649965588L1099.1355083423962,90.74547223625694L1114.6162901500354,90.06123204584185L1130.0970719576749,89.65068793159287L1145.577853765314,89.28604000497796L1161.0586355729536,88.2981730553384L1176.539417380593,87.8237743436203L1192.0201991882323,87.59829584562215L1207.5009809958717,87.1672163854148L1222.981762803511,86.73108652219207L1238.4625446111506,85.936973326719L1253.9433264187899,85.69714832556616L1269.4241082264293,84.72501440217121L1284.9048900340686,84.37837696426527L1300.385671841708,83.7562806820477L1315.8664536493472,83.38302291271714L1331.347235456987,82.80410387692223L1346.8280172646262,82.93002700395209L1362.3087990722656,82.70978851876151L1377.7895808799049,81.86772796300949L1393.2703626875443,81.12585999718243L1408.7511444951838,80.8582214047845L1424.231926302823,80.28351314611649L1439.7127081104625,79.40625291337614L1455.1934899181017,78.99821823179747L1470.6742717257412,78.93087960994853L1486.1550535333806,78.18055897220142L1501.63583534102,77.73036658955323L1517.1166171486593,77.63773334706252L1532.5973989562988,77.87794576297654L1548.078180763938,77.90376303821478L1563.5589625715775,77.62344975819394L1579.039744379217,77.1003086997402L1594.5205261868564,75.89903569668718L1610.0013079944956,75.82901734670514L1625.482089802135,75.0179394268007L1640.9628716097743,74.70877486195627L1656.4436534174138,74.46411539401686L1671.9244352250532,74.43562988756344L1687.4052170326927,74.59602077078966L1702.885998840332,74.6330945716926" fill="none"></path></g><g><path style="fill: none;" stroke="rgb(187, 187, 187)" stroke-width="2px" d="M154.80781807639383,327.742937480276L170.2885998840332,321.8732181941821L185.76938169167258,313.5114856937787L201.25016349931195,302.14209848683373L216.73094530695133,291.74041917574596L232.2117271145907,279.89899448217153L247.69250892223008,268.8974862348863L263.17329072986945,259.0222308011878L278.65407253750885,249.58873369597507L294.13485434514826,240.5526122626416L309.61563615278766,232.06370228957647L325.096417960427,224.1442648176269L340.5771997680664,219.12227716155527L356.05798157570575,212.84216251739088L371.53876338334516,208.5741590679559L387.0195451909845,202.93748337409497L402.5003269986239,199.39377911128943L417.9811088062633,195.0640330969083L433.46189061390265,191.3571610543241L448.942672421542,187.89078987430997L464.4234542291814,182.39451739457257L479.9042360368208,178.34254159679648L495.38501784446015,175.48248004148522L510.86579965209955,173.57418710443167L526.3465814597389,172.20736658557504L541.8273632673784,170.27803658817206L557.3081450750177,168.73590684750215L572.788926882657,165.93231802707982L588.2697086902965,163.61420186996114L603.7504904979359,160.27107336767673L619.2312723055753,159.2117459618843L634.7120541132147,158.67967807144566L650.192835920854,158.1090127167048L665.6736177284935,158.28425581047406L681.1543995361328,157.5168006418603L696.6351813437722,155.28155079486834L712.1159631514115,154.73904818080277L727.5967449590509,152.47608068745518L743.0775267666903,150.7485541023625L758.5583085743297,148.20347341268416L774.039090381969,147.9335594636818L789.5198721896085,148.23009828182694L805.0006539972478,147.74247747550618L820.4814358048872,146.51814325594825L835.9622176125266,145.56169845326986L851.442999420166,145.0469866588852L866.9237812278053,144.26488503375052L882.4045630354448,142.77512687129996L897.885344843084,141.70379542862804L913.3661266507235,141.20889274373948L928.8469084583628,137.9687753868858L944.3276902660023,135.74369433081608L959.8084720736416,136.59754189449518L975.2892538812811,137.37606807147182L990.7700356889203,138.0206659647556L1006.2508174965599,138.31868360717647L1021.7315993041991,137.96505891508926L1037.2123811118386,137.63456828364914L1052.6931629194778,135.58754343659373L1068.1739447271173,132.51059806016934L1083.6547265347567,130.67921819563412L1099.1355083423962,130.34946282870595L1114.6162901500354,131.08337134424315L1130.0970719576749,131.7603537278188L1145.577853765314,132.15175015476714L1161.0586355729536,131.95768118826524L1176.539417380593,131.85603281156105L1192.0201991882323,130.43437522717343L1207.5009809958717,128.22071776005345L1222.981762803511,125.44311926974481L1238.4625446111506,125.71402609542235L1253.9433264187899,126.30547701349988L1269.4241082264293,126.43850329329007L1284.9048900340686,126.22252105787803L1300.385671841708,125.08722189058454L1315.8664536493472,125.92939449059719L1331.347235456987,124.48243912754504L1346.8280172646262,122.32755108357844L1362.3087990722656,119.92537997628375L1377.7895808799049,119.84474022839441L1393.2703626875443,117.65183355006116L1408.7511444951838,116.05507890109442L1424.231926302823,117.34508303806018L1439.7127081104625,119.12479534628591L1455.1934899181017,121.24270028310326L1470.6742717257412,121.15278032870629L1486.1550535333806,120.65513417207762L1501.63583534102,120.29738574906776L1517.1166171486593,118.92912504663371L1532.5973989562988,115.71221551812323L1548.078180763938,114.25534434952368L1563.5589625715775,112.80441864498869L1579.039744379217,113.69385259690978L1594.5205261868564,115.55860116191121L1610.0013079944956,115.55342465867795L1625.482089802135,115.37283656963973L1640.9628716097743,115.51591399366714L1656.4436534174138,114.64041834787315L1671.9244352250532,112.63613658584376L1687.4052170326927,109.7327388830168L1702.885998840332,109.38094354232447" fill="none"></path></g></g></g></g><g opacity="0.2"><g><g><g><path style="fill: none;" stroke="rgb(255, 112, 67)" stroke-width="2px" d="M154.80781807639383,322.41859329992906L170.2885998840332,302.15650729802996L185.76938169167258,277.75326723361013L201.25016349931195,258.0827761804312L216.73094530695133,240.33495945438742L232.2117271145907,228.05939027397335L247.69250892223008,211.19897037872673L263.17329072986945,200.40237711004914L278.65407253750885,189.3099943009019L294.13485434514826,179.69660150818527L309.61563615278766,175.25964556358755L325.096417960427,168.0126255134046L340.5771997680664,160.91349318110943L356.05798157570575,156.92024270425736L371.53876338334516,152.48328675965965L387.0195451909845,149.52532083149254L402.5003269986239,144.94046306431295L417.9811088062633,144.05308033820987L433.46189061390265,142.86989396694304L448.942672421542,138.4329380223453L464.4234542291814,130.00273160089552L479.9042360368208,127.63634475366771L495.38501784446015,126.3052706645131L510.86579965209955,124.97418247066437L526.3465814597389,122.60780972813069L541.8273632673784,120.68512834864856L557.3081450750177,118.76244696916638L572.788926882657,118.0229519609511L588.2697086902965,116.69186376710235L603.7504904979359,116.39607422663272L619.2312723055753,114.47339284715054L634.7120541132147,112.99440283071993L650.192835920854,112.4028096450865L665.6736177284935,109.14904007175562L681.1543995361328,109.59274553950132L696.6351813437722,107.96585370048882L712.1159631514115,109.59274553950132L727.5967449590509,108.7053487087041L743.0775267666903,106.63477961133418L758.5583085743297,106.78266732922197L774.039090381969,104.85998594973984L789.5198721896085,104.26839276410641L805.0006539972478,103.08520639283955L820.4814358048872,102.93731867495177L835.9622176125266,99.97933864209057L851.442999420166,99.68354910162088L866.9237812278053,99.23985773856936L882.4045630354448,98.94405409340561L897.885344843084,98.64826455293598L913.3661266507235,96.42977952829006L928.8469084583628,96.42977952829006L944.3276902660023,95.0986913344413L959.8084720736416,94.50709814880787L975.2892538812811,93.61971542270481L990.7700356889203,92.73233269660176L1006.2508174965599,91.84492176111041L1021.7315993041991,90.80963721242546L1037.2123811118386,91.99282358369231L1052.6931629194778,90.36593174467981L1068.1739447271173,91.25334268017116L1083.6547265347567,91.69701993852857L1099.1355083423962,89.62645084115866L1114.6162901500354,89.03487176021935L1130.0970719576749,89.03487176021935L1145.577853765314,88.73906811505555L1161.0586355729536,86.8163726308793L1176.539417380593,87.11217627604304L1192.0201991882323,87.26007809862494L1207.5009809958717,86.52059719510373L1222.981762803511,86.07689172735809L1238.4625446111506,84.74580353350939L1253.9433264187899,85.33741082383693L1269.4241082264293,83.26681351707873L1284.9048900340686,83.85842080740633L1300.385671841708,82.82313625872132L1315.8664536493472,82.82313625872132L1331.347235456987,81.93572532323003L1346.8280172646262,83.11891169449689L1362.3087990722656,82.37943079097568L1377.7895808799049,80.60463712938133L1393.2703626875443,80.01305804844202L1408.7511444951838,80.45676351618766L1424.231926302823,79.42145075811447L1439.7127081104625,78.09036256426572L1455.1934899181017,78.38616620942952L1470.6742717257412,78.82987167717516L1486.1550535333806,77.05507801558076L1501.63583534102,77.05507801558076L1517.1166171486593,77.4987834833264L1532.5973989562988,78.23826438684762L1548.078180763938,77.94248895107211L1563.5589625715775,77.20297983816266L1579.039744379217,76.3155971120596L1594.5205261868564,74.0971261921078L1610.0013079944956,75.72398982173206L1625.482089802135,73.801322546944L1640.9628716097743,74.2450280146897L1656.4436534174138,74.0971261921078L1671.9244352250532,74.3929016278833L1687.4052170326927,74.836607095629L1702.885998840332,74.6887052730471" fill="none"></path></g><g><path style="fill: none;" stroke="rgb(187, 187, 187)" stroke-width="2px" d="M154.80781807639383,327.742937480276L170.2885998840332,318.35138662252575L185.76938169167258,305.4842224933915L201.25016349931195,288.77169913146645L216.73094530695133,278.15998666718974L232.2117271145907,263.51804121806845L247.69250892223008,253.16515341713654L263.17329072986945,244.62401357640326L278.65407253750885,235.67615782826394L294.13485434514826,227.13502503987775L309.61563615278766,219.40733111865075L325.096417960427,212.30820583870263L340.5771997680664,211.60569333847985L356.05798157570575,203.43429394950718L371.53876338334516,202.17717077164352L387.0195451909845,194.48644525371492L402.5003269986239,194.0797222939618L417.9811088062633,188.5705133973807L433.46189061390265,185.79741769509388L448.942672421542,182.6915499443449L464.4234542291814,174.15041010361165L479.9042360368208,172.26471123212204L495.38501784446015,171.19244417544454L510.86579965209955,170.7117703044005L526.3465814597389,170.15714552206546L541.8273632673784,167.38404981977865L557.3081450750177,166.42271618238465L572.788926882657,161.72693910061568L588.2697086902965,160.1370297695957L603.7504904979359,155.25638246194646L619.2312723055753,157.62275520448014L634.7120541132147,157.8815763416514L650.192835920854,157.25301475271954L665.6736177284935,158.54712043857575L681.1543995361328,156.36561792192236L696.6351813437722,151.92867608201877L712.1159631514115,153.92529426809773L727.5967449590509,149.081629468441L743.0775267666903,148.1572642343454L758.5583085743297,144.38585238667204L774.039090381969,147.52868854071946L789.5198721896085,148.67490650868788L805.0006539972478,147.01104626637698L820.4814358048872,144.6816419271417L835.9622176125266,144.12703124950082L851.442999420166,144.27491896738857L866.9237812278053,143.09173259612174L882.4045630354448,140.54048962770776L897.885344843084,140.09679826465623L913.3661266507235,140.4665387164168L928.8469084583628,133.1085993516445L944.3276902660023,132.4060727467276L959.8084720736416,137.8783132400103L975.2892538812811,138.54385733693465L990.7700356889203,138.98756280468032L1006.2508174965599,138.76571007080747L1021.7315993041991,137.43462187695877L1037.2123811118386,137.13883233648912L1052.6931629194778,132.5170061660111L1068.1739447271173,127.89517999553308L1083.6547265347567,127.93214839883149L1099.1355083423962,129.85482977831364L1114.6162901500354,132.1842341175489L1130.0970719576749,132.77582730318233L1145.577853765314,132.7388447951898L1161.0586355729536,131.6665777385123L1176.539417380593,131.70356024650485L1192.0201991882323,128.3018888505921L1207.5009809958717,124.90023155937342L1222.981762803511,121.27672153428199L1238.4625446111506,126.12038633393868L1253.9433264187899,127.19265339061619L1269.4241082264293,126.63804271297528L1284.9048900340686,125.89854770475998L1300.385671841708,123.38427313964442L1315.8664536493472,127.19265339061619L1331.347235456987,122.31200608296695L1346.8280172646262,119.09521901762855L1362.3087990722656,116.32212331534174L1377.7895808799049,119.72378060656041L1393.2703626875443,114.36247353256124L1408.7511444951838,113.65994692764434L1424.231926302823,119.28008924350888L1439.7127081104625,121.79436380862444L1455.1934899181017,124.41955768832938L1470.6742717257412,121.01790039711074L1486.1550535333806,119.90866493713486L1501.63583534102,119.76076311455296L1517.1166171486593,116.87673399298268L1532.5973989562988,110.88685122535753L1548.078180763938,112.07003759662433L1563.5589625715775,110.62803008818628L1579.039744379217,115.02800352479147L1594.5205261868564,118.35572400941328L1610.0013079944956,115.54565990382804L1625.482089802135,115.1019544360824L1640.9628716097743,115.73053012970837L1656.4436534174138,113.32717487918211L1671.9244352250532,109.6297139427997L1687.4052170326927,105.3776423287764L1702.885998840332,108.853250531286" fill="none"></path></g></g></g></g></g></g><g transform="translate(49, 378)" clip-path="url(#clip_1)"><clipPath id="clip_1"><rect width="1702" height="21"></rect></clipPath><g><g><line x1="0" y1="0" x2="0" y2="5" style="visibility: inherit;" fill="rgb(0, 0, 0)" stroke="rgb(204, 204, 204)" stroke-width="1px"></line><line x1="154.80781807639383" y1="0" x2="154.80781807639383" y2="5" style="visibility: inherit;" fill="rgb(0, 0, 0)" stroke="rgb(204, 204, 204)" stroke-width="1px"></line><line x1="309.61563615278766" y1="0" x2="309.61563615278766" y2="5" style="visibility: inherit;" fill="rgb(0, 0, 0)" stroke="rgb(204, 204, 204)" stroke-width="1px"></line><line x1="464.4234542291814" y1="0" x2="464.4234542291814" y2="5" style="visibility: inherit;" fill="rgb(0, 0, 0)" stroke="rgb(204, 204, 204)" stroke-width="1px"></line><line x1="619.2312723055753" y1="0" x2="619.2312723055753" y2="5" style="visibility: inherit;" fill="rgb(0, 0, 0)" stroke="rgb(204, 204, 204)" stroke-width="1px"></line><line x1="774.039090381969" y1="0" x2="774.039090381969" y2="5" style="visibility: inherit;" fill="rgb(0, 0, 0)" stroke="rgb(204, 204, 204)" stroke-width="1px"></line><line x1="928.8469084583628" y1="0" x2="928.8469084583628" y2="5" style="visibility: inherit;" fill="rgb(0, 0, 0)" stroke="rgb(204, 204, 204)" stroke-width="1px"></line><line x1="1083.6547265347567" y1="0" x2="1083.6547265347567" y2="5" style="visibility: inherit;" fill="rgb(0, 0, 0)" stroke="rgb(204, 204, 204)" stroke-width="1px"></line><line x1="1238.4625446111506" y1="0" x2="1238.4625446111506" y2="5" style="visibility: inherit;" fill="rgb(0, 0, 0)" stroke="rgb(204, 204, 204)" stroke-width="1px"></line><line x1="1393.2703626875443" y1="0" x2="1393.2703626875443" y2="5" style="visibility: inherit;" fill="rgb(0, 0, 0)" stroke="rgb(204, 204, 204)" stroke-width="1px"></line><line x1="1548.078180763938" y1="0" x2="1548.078180763938" y2="5" style="visibility: inherit;" fill="rgb(0, 0, 0)" stroke="rgb(204, 204, 204)" stroke-width="1px"></line><line x1="1702.885998840332" y1="0" x2="1702.885998840332" y2="5" style="visibility: inherit;" fill="rgb(0, 0, 0)" stroke="rgb(204, 204, 204)" stroke-width="1px"></line></g><g transform="translate(0, 8)"><text style="text-anchor: middle; visibility: hidden; font-family: &quot;Helvetica Neue&quot;, sans-serif; font-size: 12px; font-weight: 200;" x="0" y="0" dx="0em" dy="0.95em" fill="rgb(50, 49, 63)" stroke="none" stroke-width="1px">-10</text><text style="text-anchor: middle; visibility: inherit; font-family: &quot;Helvetica Neue&quot;, sans-serif; font-size: 12px; font-weight: 200;" x="154.80781807639383" y="0" dx="0em" dy="0.95em" fill="rgb(50, 49, 63)" stroke="none" stroke-width="1px">0</text><text style="text-anchor: middle; visibility: inherit; font-family: &quot;Helvetica Neue&quot;, sans-serif; font-size: 12px; font-weight: 200;" x="309.61563615278766" y="0" dx="0em" dy="0.95em" fill="rgb(50, 49, 63)" stroke="none" stroke-width="1px">10</text><text style="text-anchor: middle; visibility: inherit; font-family: &quot;Helvetica Neue&quot;, sans-serif; font-size: 12px; font-weight: 200;" x="464.4234542291814" y="0" dx="0em" dy="0.95em" fill="rgb(50, 49, 63)" stroke="none" stroke-width="1px">20</text><text style="text-anchor: middle; visibility: inherit; font-family: &quot;Helvetica Neue&quot;, sans-serif; font-size: 12px; font-weight: 200;" x="619.2312723055753" y="0" dx="0em" dy="0.95em" fill="rgb(50, 49, 63)" stroke="none" stroke-width="1px">30</text><text style="text-anchor: middle; visibility: inherit; font-family: &quot;Helvetica Neue&quot;, sans-serif; font-size: 12px; font-weight: 200;" x="774.039090381969" y="0" dx="0em" dy="0.95em" fill="rgb(50, 49, 63)" stroke="none" stroke-width="1px">40</text><text style="text-anchor: middle; visibility: inherit; font-family: &quot;Helvetica Neue&quot;, sans-serif; font-size: 12px; font-weight: 200;" x="928.8469084583628" y="0" dx="0em" dy="0.95em" fill="rgb(50, 49, 63)" stroke="none" stroke-width="1px">50</text><text style="text-anchor: middle; visibility: inherit; font-family: &quot;Helvetica Neue&quot;, sans-serif; font-size: 12px; font-weight: 200;" x="1083.6547265347567" y="0" dx="0em" dy="0.95em" fill="rgb(50, 49, 63)" stroke="none" stroke-width="1px">60</text><text style="text-anchor: middle; visibility: inherit; font-family: &quot;Helvetica Neue&quot;, sans-serif; font-size: 12px; font-weight: 200;" x="1238.4625446111506" y="0" dx="0em" dy="0.95em" fill="rgb(50, 49, 63)" stroke="none" stroke-width="1px">70</text><text style="text-anchor: middle; visibility: inherit; font-family: &quot;Helvetica Neue&quot;, sans-serif; font-size: 12px; font-weight: 200;" x="1393.2703626875443" y="0" dx="0em" dy="0.95em" fill="rgb(50, 49, 63)" stroke="none" stroke-width="1px">80</text><text style="text-anchor: middle; visibility: inherit; font-family: &quot;Helvetica Neue&quot;, sans-serif; font-size: 12px; font-weight: 200;" x="1548.078180763938" y="0" dx="0em" dy="0.95em" fill="rgb(50, 49, 63)" stroke="none" stroke-width="1px">90</text><text style="text-anchor: middle; visibility: hidden; font-family: &quot;Helvetica Neue&quot;, sans-serif; font-size: 12px; font-weight: 200;" x="1702.885998840332" y="0" dx="0em" dy="0.95em" fill="rgb(50, 49, 63)" stroke="none" stroke-width="1px">100</text></g><line x1="0" y1="0" x2="1702.885998840332" y2="0" fill="rgb(0, 0, 0)" stroke="rgb(204, 204, 204)" stroke-width="1px"></line></g></g></g></g></svg>