<svg viewBox="0 0 1752.86669921875 400" xmlns="http://www.w3.org/2000/svg"><g><g><g><g><g><line x1="29.992000579833984" y1="378.6199998855591" x2="24.992000579833984" y2="378.6199998855591" style="visibility: inherit;" fill="rgb(0, 0, 0)" stroke="rgb(204, 204, 204)" stroke-width="1px"></line><line x1="29.992000579833984" y1="336.55111100938586" x2="24.992000579833984" y2="336.55111100938586" style="visibility: inherit;" fill="rgb(0, 0, 0)" stroke="rgb(204, 204, 204)" stroke-width="1px"></line><line x1="29.992000579833984" y1="294.48222213321264" x2="24.992000579833984" y2="294.48222213321264" style="visibility: inherit;" fill="rgb(0, 0, 0)" stroke="rgb(204, 204, 204)" stroke-width="1px"></line><line x1="29.992000579833984" y1="252.4133332570394" x2="24.992000579833984" y2="252.4133332570394" style="visibility: inherit;" fill="rgb(0, 0, 0)" stroke="rgb(204, 204, 204)" stroke-width="1px"></line><line x1="29.992000579833984" y1="210.34444438086618" x2="24.992000579833984" y2="210.34444438086618" style="visibility: inherit;" fill="rgb(0, 0, 0)" stroke="rgb(204, 204, 204)" stroke-width="1px"></line><line x1="29.992000579833984" y1="168.2755555046929" x2="24.992000579833984" y2="168.2755555046929" style="visibility: inherit;" fill="rgb(0, 0, 0)" stroke="rgb(204, 204, 204)" stroke-width="1px"></line><line x1="29.992000579833984" y1="126.20666662851971" x2="24.992000579833984" y2="126.20666662851971" style="visibility: inherit;" fill="rgb(0, 0, 0)" stroke="rgb(204, 204, 204)" stroke-width="1px"></line><line x1="29.992000579833984" y1="84.13777775234644" x2="24.992000579833984" y2="84.13777775234644" style="visibility: inherit;" fill="rgb(0, 0, 0)" stroke="rgb(204, 204, 204)" stroke-width="1px"></line><line x1="29.992000579833984" y1="42.068888876173276" x2="24.992000579833984" y2="42.068888876173276" style="visibility: inherit;" fill="rgb(0, 0, 0)" stroke="rgb(204, 204, 204)" stroke-width="1px"></line><line x1="29.992000579833984" y1="0" x2="24.992000579833984" y2="0" style="visibility: inherit;" fill="rgb(0, 0, 0)" stroke="rgb(204, 204, 204)" stroke-width="1px"></line></g><g transform="translate(19.992000579833984, 0)"><text style="text-anchor: end; visibility: hidden; font-family: &quot;Helvetica Neue&quot;, sans-serif; font-size: 12px; font-weight: 200;" x="0" y="378.6199998855591" dx="0em" dy="0.3em" fill="rgb(50, 49, 63)" stroke="none" stroke-width="1px">-1</text><text style="text-anchor: end; visibility: inherit; font-family: &quot;Helvetica Neue&quot;, sans-serif; font-size: 12px; font-weight: 200;" x="0" y="336.55111100938586" dx="0em" dy="0.3em" fill="rgb(50, 49, 63)" stroke="none" stroke-width="1px">0</text><text style="text-anchor: end; visibility: inherit; font-family: &quot;Helvetica Neue&quot;, sans-serif; font-size: 12px; font-weight: 200;" x="0" y="294.48222213321264" dx="0em" dy="0.3em" fill="rgb(50, 49, 63)" stroke="none" stroke-width="1px">1</text><text style="text-anchor: end; visibility: inherit; font-family: &quot;Helvetica Neue&quot;, sans-serif; font-size: 12px; font-weight: 200;" x="0" y="252.4133332570394" dx="0em" dy="0.3em" fill="rgb(50, 49, 63)" stroke="none" stroke-width="1px">2</text><text style="text-anchor: end; visibility: inherit; font-family: &quot;Helvetica Neue&quot;, sans-serif; font-size: 12px; font-weight: 200;" x="0" y="210.34444438086618" dx="0em" dy="0.3em" fill="rgb(50, 49, 63)" stroke="none" stroke-width="1px">3</text><text style="text-anchor: end; visibility: inherit; font-family: &quot;Helvetica Neue&quot;, sans-serif; font-size: 12px; font-weight: 200;" x="0" y="168.2755555046929" dx="0em" dy="0.3em" fill="rgb(50, 49, 63)" stroke="none" stroke-width="1px">4</text><text style="text-anchor: end; visibility: inherit; font-family: &quot;Helvetica Neue&quot;, sans-serif; font-size: 12px; font-weight: 200;" x="0" y="126.20666662851971" dx="0em" dy="0.3em" fill="rgb(50, 49, 63)" stroke="none" stroke-width="1px">5</text><text style="text-anchor: end; visibility: inherit; font-family: &quot;Helvetica Neue&quot;, sans-serif; font-size: 12px; font-weight: 200;" x="0" y="84.13777775234644" dx="0em" dy="0.3em" fill="rgb(50, 49, 63)" stroke="none" stroke-width="1px">6</text><text style="text-anchor: end; visibility: inherit; font-family: &quot;Helvetica Neue&quot;, sans-serif; font-size: 12px; font-weight: 200;" x="0" y="42.068888876173276" dx="0em" dy="0.3em" fill="rgb(50, 49, 63)" stroke="none" stroke-width="1px">7</text><text style="text-anchor: end; visibility: hidden; font-family: &quot;Helvetica Neue&quot;, sans-serif; font-size: 12px; font-weight: 200;" x="0" y="0" dx="0em" dy="0.3em" fill="rgb(50, 49, 63)" stroke="none" stroke-width="1px">8</text></g><line x1="29.992000579833984" y1="0" x2="29.992000579833984" y2="378.6199998855591" fill="rgb(0, 0, 0)" stroke="rgb(204, 204, 204)" stroke-width="1px"></line></g></g><g transform="translate(30, 0)" clip-path="url(#clip_0)"><clipPath id="clip_0"><rect width="1722" height="378"></rect></clipPath><g><g><g><line x1="0" y1="0" x2="0" y2="378.6199998855591" fill="rgb(0, 0, 0)" stroke="rgb(60, 60, 60)" stroke-width="1px" opacity="0.25"></line><line x1="172.2877999420166" y1="0" x2="172.2877999420166" y2="378.6199998855591" fill="rgb(0, 0, 0)" stroke="rgb(60, 60, 60)" stroke-width="1px" opacity="0.25"></line><line x1="344.5755998840332" y1="0" x2="344.5755998840332" y2="378.6199998855591" fill="rgb(0, 0, 0)" stroke="rgb(60, 60, 60)" stroke-width="1px" opacity="0.25"></line><line x1="516.8633998260498" y1="0" x2="516.8633998260498" y2="378.6199998855591" fill="rgb(0, 0, 0)" stroke="rgb(60, 60, 60)" stroke-width="1px" opacity="0.25"></line><line x1="689.1511997680664" y1="0" x2="689.1511997680664" y2="378.6199998855591" fill="rgb(0, 0, 0)" stroke="rgb(60, 60, 60)" stroke-width="1px" opacity="0.25"></line><line x1="861.438999710083" y1="0" x2="861.438999710083" y2="378.6199998855591" fill="rgb(0, 0, 0)" stroke="rgb(60, 60, 60)" stroke-width="1px" opacity="0.25"></line><line x1="1033.7267996520995" y1="0" x2="1033.7267996520995" y2="378.6199998855591" fill="rgb(0, 0, 0)" stroke="rgb(60, 60, 60)" stroke-width="1px" opacity="0.25"></line><line x1="1206.0145995941161" y1="0" x2="1206.0145995941161" y2="378.6199998855591" fill="rgb(0, 0, 0)" stroke="rgb(60, 60, 60)" stroke-width="1px" opacity="0.25"></line><line x1="1378.3023995361327" y1="0" x2="1378.3023995361327" y2="378.6199998855591" fill="rgb(0, 0, 0)" stroke="rgb(60, 60, 60)" stroke-width="1px" opacity="0.25"></line><line x1="1550.5901994781493" y1="0" x2="1550.5901994781493" y2="378.6199998855591" fill="rgb(0, 0, 0)" stroke="rgb(60, 60, 60)" stroke-width="1px" opacity="0.25"></line><line x1="1722.877999420166" y1="0" x2="1722.877999420166" y2="378.6199998855591" fill="rgb(0, 0, 0)" stroke="rgb(60, 60, 60)" stroke-width="1px" opacity="0.25"></line></g><g><line x1="0" y1="378.6199998855591" x2="1722.877999420166" y2="378.6199998855591" fill="rgb(0, 0, 0)" stroke="rgb(60, 60, 60)" stroke-width="1px" opacity="0.25"></line><line x1="0" y1="336.55111100938586" x2="1722.877999420166" y2="336.55111100938586" fill="rgb(0, 0, 0)" stroke="rgb(60, 60, 60)" stroke-width="1px" opacity="0.25"></line><line x1="0" y1="294.48222213321264" x2="1722.877999420166" y2="294.48222213321264" fill="rgb(0, 0, 0)" stroke="rgb(60, 60, 60)" stroke-width="1px" opacity="0.25"></line><line x1="0" y1="252.4133332570394" x2="1722.877999420166" y2="252.4133332570394" fill="rgb(0, 0, 0)" stroke="rgb(60, 60, 60)" stroke-width="1px" opacity="0.25"></line><line x1="0" y1="210.34444438086618" x2="1722.877999420166" y2="210.34444438086618" fill="rgb(0, 0, 0)" stroke="rgb(60, 60, 60)" stroke-width="1px" opacity="0.25"></line><line x1="0" y1="168.2755555046929" x2="1722.877999420166" y2="168.2755555046929" fill="rgb(0, 0, 0)" stroke="rgb(60, 60, 60)" stroke-width="1px" opacity="0.25"></line><line x1="0" y1="126.20666662851971" x2="1722.877999420166" y2="126.20666662851971" fill="rgb(0, 0, 0)" stroke="rgb(60, 60, 60)" stroke-width="1px" opacity="0.25"></line><line x1="0" y1="84.13777775234644" x2="1722.877999420166" y2="84.13777775234644" fill="rgb(0, 0, 0)" stroke="rgb(60, 60, 60)" stroke-width="1px" opacity="0.25"></line><line x1="0" y1="42.068888876173276" x2="1722.877999420166" y2="42.068888876173276" fill="rgb(0, 0, 0)" stroke="rgb(60, 60, 60)" stroke-width="1px" opacity="0.25"></line><line x1="0" y1="0" x2="1722.877999420166" y2="0" fill="rgb(0, 0, 0)" stroke="rgb(60, 60, 60)" stroke-width="1px" opacity="0.25"></line></g></g></g><g><g><line x1="0" y1="336.55111100938586" x2="1722.877999420166" y2="336.55111100938586" fill="rgb(0, 0, 0)" stroke="rgb(153, 153, 153)" stroke-width="1.5px"></line></g></g><g><g><line x1="172.2877999420166" y1="0" x2="172.2877999420166" y2="378.6199998855591" fill="rgb(0, 0, 0)" stroke="rgb(153, 153, 153)" stroke-width="1.5px"></line></g></g><g><g><g><g><g><path style="fill: none;" stroke="rgb(255, 112, 67)" stroke-width="2px" d="M172.2877999420166,111.39034367055501L189.51657993621825,122.11754654570831L206.7453599304199,134.03080105999194L223.97413992462157,145.7707516848538L241.20291991882326,156.52084113265207L258.4316999130249,166.15218926379745L275.66047990722655,174.6822947396645L292.8892599014282,182.1155546317624L310.11803989562986,188.63087342370588L327.3468198898315,194.22777558336352L344.5755998840332,199.13498376586892L361.80437987823484,203.39319870063707L379.0331598724365,207.15539269790273L396.26193986663816,210.4643453498392L413.4907198608398,213.38902061199096L430.7194998550415,215.98118077729802L447.94827984924314,218.351634365181L465.17705984344485,220.4906351568052L482.4058398376465,222.39114057395L499.63461983184806,224.1127059592404L516.8633998260498,226.36668045400634L534.0921798202514,228.39857928085777L551.3209598144531,230.15764093817322L568.5497398086547,231.60384790091567L585.7785198028564,232.9124478333116L603.0072997970581,234.01882287848375L620.2360797912597,234.92757565143526L637.4648597854614,235.77505903147377L654.693639779663,236.55089659447512L671.9224197738647,237.23731185790598L689.1511997680664,237.82492674470197L706.379979762268,238.3869542379305L723.6087597564697,238.94300535845832L740.8375397506713,239.50741840477235L758.066319744873,240.01090333445492L775.2950997390747,240.53549991351204L792.5238797332763,241.06518481174632L809.752659727478,241.50689037923172L826.9814397216796,241.92036982472123L844.2102197158813,242.2800312639712L861.438999710083,242.6273495730834L878.6677797042846,243.0893953656145L895.8965596984863,243.53165653854083L913.1253396926879,243.9562054650015L930.3541196868897,244.37208891252794L947.5828996810914,244.78948916386094L964.811679675293,245.14749509716256L982.0404596694945,245.47414925766418L999.2692396636961,245.77459823501616L1016.4980196578979,246.03264428995047L1033.7267996520995,246.35411443316835L1050.9555796463012,246.67667244399615L1068.1843596405029,246.96644313968622L1085.4131396347045,247.28624212563403L1102.6419196289062,247.59803624151635L1119.8706996231078,247.85992852218027L1137.0994796173095,248.13879605174577L1154.3282596115112,248.46324261127378L1171.5570396057128,248.74586165229368L1188.7858195999145,248.92791842676897L1206.0145995941161,249.1575005119713L1223.2433795883178,249.43931272674683L1240.4721595825195,249.70080047100475L1257.700939576721,249.92285204015909L1274.9297195709228,250.18648909089234L1292.1584995651244,250.39706806593856L1309.387279559326,250.66186562398457L1326.6160595535277,250.91567213539173L1343.8448395477294,251.07130205180738L1361.073619541931,251.27437615717167L1378.3023995361327,251.44176486577857L1395.5311795303344,251.6547387557934L1412.759959524536,251.92936235876022L1429.9887395187377,252.15838672471318L1447.2175195129394,252.3731868426263L1464.446299507141,252.6060700382156L1481.6750795013427,252.78582368636492L1498.9038594955443,252.9479783207557L1516.132639489746,253.12638575548286L1533.3614194839477,253.27719313287085L1550.5901994781493,253.43337409015572L1567.818979472351,253.57412739861954L1585.0477594665526,253.76566974398904L1602.2765394607543,253.97802059896318L1619.505319454956,254.0911905112601L1636.7340994491576,254.28691684466645L1653.9628794433593,254.4794954339984L1671.191659437561,254.67177011763L1688.4204394317626,254.82414163318782L1705.6492194259642,254.93047113552288L1722.877999420166,255.04221627144074L1740.1067794143676,255.18865886427676" fill="none"></path></g><g><path style="fill: none;" stroke="rgb(187, 187, 187)" stroke-width="2px" d="M172.2877999420166,77.11849961598949L189.51657993621825,92.3514188195939L206.7453599304199,105.72852309657816L223.97413992462157,118.636799569848L241.20291991882326,129.57362956877935L258.4316999130249,139.48124264868434L275.66047990722655,148.03411179607406L292.8892599014282,155.6006278329116L310.11803989562986,162.43387511817926L327.3468198898315,168.8086416787128L344.5755998840332,174.16985930954638L361.80437987823484,178.35363456739097L379.0331598724365,182.19150886959974L396.26193986663816,185.6841844666552L413.4907198608398,188.29124114265005L430.7194998550415,190.82200821668914L447.94827984924314,193.08271859538013L465.17705984344485,195.57668277300706L482.4058398376465,197.62369232385507L499.63461983184806,199.97870236592362L516.8633998260498,203.51307390182902L534.0921798202514,205.19682271069044L551.3209598144531,206.1129916733073L568.5497398086547,207.29461380735057L585.7785198028564,207.85275988879687L603.0072997970581,208.74331775491927L620.2360797912597,209.7451023563022L637.4648597854614,210.71215953355212L654.693639779663,211.88699241814513L671.9224197738647,213.8059840904206L689.1511997680664,214.62254512461627L706.379979762268,214.20427671302642L723.6087597564697,215.12817432721L740.8375397506713,215.22916065359468L758.066319744873,215.46048720268837L775.2950997390747,216.11628173372225L792.5238797332763,216.53280739898025L809.752659727478,217.64916676259753L826.9814397216796,218.70356886757926L844.2102197158813,219.7015711051322L861.438999710083,219.18502388613135L878.6677797042846,219.90120114536418L895.8965596984863,219.87594648689554L913.1253396926879,220.0986933675814L930.3541196868897,220.55372691892902L947.5828996810914,220.96964252082205L964.811679675293,221.75634276621537L982.0404596694945,222.28104451017376L999.2692396636961,223.52801808630647L1016.4980196578979,223.33952015208797L1033.7267996520995,225.38456948106662L1050.9555796463012,225.77480782147546L1068.1843596405029,225.00004468792102L1085.4131396347045,224.97386711780044L1102.6419196289062,224.5441781493156L1119.8706996231078,224.59351560846753L1137.0994796173095,224.76887010040605L1154.3282596115112,225.29362184459092L1171.5570396057128,225.98355093524404L1188.7858195999145,227.45917235220904L1206.0145995941161,228.39967010827547L1223.2433795883178,227.75089184823642L1240.4721595825195,227.99434567334808L1257.700939576721,227.80770265216697L1274.9297195709228,227.8587124400035L1292.1584995651244,228.0282459139478L1309.387279559326,228.3829748731312L1326.6160595535277,228.9679093753835L1343.8448395477294,229.9521565501356L1361.073619541931,231.35925556245115L1378.3023995361327,230.4696400915872L1395.5311795303344,230.5882022554133L1412.759959524536,230.34697311101704L1429.9887395187377,230.461996698367L1447.2175195129394,230.59308053192575L1464.446299507141,230.5650797859761L1481.6750795013427,231.3330309189373L1498.9038594955443,231.9907908912231L1516.132639489746,233.26126287389076L1533.3614194839477,233.011803440362L1550.5901994781493,234.9861899017358L1567.818979472351,235.34320195789755L1585.0477594665526,234.47044153313848L1602.2765394607543,234.03441141143358L1619.505319454956,233.2005855816934L1636.7340994491576,233.3344511736607L1653.9628794433593,233.50526925534066L1671.191659437561,233.61089748982198L1688.4204394317626,234.24485331446309L1705.6492194259642,235.89577966191817L1722.877999420166,236.79182474200758L1740.1067794143676,236.35681816129807" fill="none"></path></g></g></g></g><g opacity="0.2"><g><g><g><path style="fill: none;" stroke="rgb(255, 112, 67)" stroke-width="2px" d="M172.2877999420166,111.39034367055501L189.51657993621825,128.55386827080036L206.7453599304199,145.4675253937042L223.97413992462157,159.5769336196913L241.20291991882326,170.5561579156976L258.4316999130249,179.47581101449876L275.66047990722655,186.88048205184194L292.8892599014282,192.9533189137361L310.11803989562986,198.23970310630037L327.3468198898315,202.5385230050899L344.5755998840332,206.45128802258228L361.80437987823484,209.75734808515702L379.0331598724365,212.78639947764444L396.26193986663816,215.42129174502887L413.4907198608398,217.772595659236L430.7194998550415,219.86759283307768L447.94827984924314,221.90631165049024L465.17705984344485,223.69859325217223L482.4058398376465,225.24160917679535L499.63461983184806,226.69489667928067L516.8633998260498,229.74751858283716L534.0921798202514,231.44636066063856L551.3209598144531,232.79619869454248L568.5497398086547,233.77314121332915L585.7785198028564,234.8753384309373L603.0072997970581,235.67838072805785L620.2360797912597,236.29070248561322L637.4648597854614,237.0462828004449L654.693639779663,237.7146522243211L671.9224197738647,238.26693437368098L689.1511997680664,238.70634888003653L706.379979762268,239.22999536594867L723.6087597564697,239.77708197286867L740.8375397506713,240.3540379338157L758.066319744873,240.76613070734058L775.2950997390747,241.32239476857043L792.5238797332763,241.85971215090262L809.752659727478,242.16944872635952L826.9814397216796,242.54058899065248L844.2102197158813,242.81952342164422L861.438999710083,243.14832703605524L878.6677797042846,243.7824640538554L895.8965596984863,244.19504829761107L913.1253396926879,244.59302885450862L930.3541196868897,244.9959140837095L947.5828996810914,245.4155895407953L964.811679675293,245.68450399708152L982.0404596694945,245.96413049839828L999.2692396636961,246.22527170103402L1016.4980196578979,246.4197133723467L1033.7267996520995,246.83631964799122L1050.9555796463012,247.16050946023555L1068.1843596405029,247.40109918322003L1085.4131396347045,247.76594060455497L1102.6419196289062,248.0657274153393L1119.8706996231078,248.25276694317583L1137.0994796173095,248.55709734609388L1154.3282596115112,248.94991245056568L1171.5570396057128,249.16979021382352L1188.7858195999145,249.20100358848183L1206.0145995941161,249.50187363977486L1223.2433795883178,249.8620310489101L1240.4721595825195,250.0930320873916L1257.700939576721,250.2559293938906L1274.9297195709228,250.58194466699217L1292.1584995651244,250.7129365285079L1309.387279559326,251.05906196105354L1326.6160595535277,251.2963819025025L1343.8448395477294,251.30474692643082L1361.073619541931,251.57898731521817L1378.3023995361327,251.69284792868882L1395.5311795303344,251.97419959081572L1412.759959524536,252.34129776321046L1429.9887395187377,252.50192327364255L1447.2175195129394,252.69538701949602L1464.446299507141,252.9553948315995L1481.6750795013427,253.05545415858887L1498.9038594955443,253.19121027234195L1516.132639489746,253.39399690757355L1533.3614194839477,253.50340419895284L1550.5901994781493,253.667645526083L1567.818979472351,253.78525736131527L1585.0477594665526,254.0529832620433L1602.2765394607543,254.2965468814244L1619.505319454956,254.2609453797054L1636.7340994491576,254.58050634477596L1653.9628794433593,254.76836331799637L1671.191659437561,254.96018214307733L1688.4204394317626,255.0526989065246L1705.6492194259642,255.08996538902545L1722.877999420166,255.20983397531757L1740.1067794143676,255.4083227535308" fill="none"></path></g><g><path style="fill: none;" stroke="rgb(187, 187, 187)" stroke-width="2px" d="M172.2877999420166,77.11849961598949L189.51657993621825,101.49117034175657L206.7453599304199,118.57054320248307L223.97413992462157,133.81693270241337L241.20291991882326,143.85275481538403L258.4316999130249,153.18703827890178L275.66047990722655,160.2648515227477L292.8892599014282,166.63268085317466L310.11803989562986,172.51158757399634L327.3468198898315,178.2744270803111L344.5755998840332,182.16305990647064L361.80437987823484,184.60652953396018L379.0331598724365,187.9357889974297L396.26193986663816,190.91635534714783L413.4907198608398,192.19876165938481L430.7194998550415,194.61637393473134L447.94827984924314,196.47282750654946L465.17705984344485,199.31699582221302L482.4058398376465,200.69389480882515L499.63461983184806,203.51100217178052L516.8633998260498,208.81443737235222L534.0921798202514,207.7223905195108L551.3209598144531,207.48722702907457L568.5497398086547,209.06703301097488L585.7785198028564,208.68997504390288L603.0072997970581,210.07915075628034L620.2360797912597,211.2477766950844L637.4648597854614,212.1627438147665L654.693639779663,213.64924066284743L671.9224197738647,216.68447053823635L689.1511997680664,215.8473864051292L706.379979762268,213.57687417886305L723.6087597564697,216.51402063819054L740.8375397506713,215.38064013593828L758.066319744873,215.8074770163872L775.2950997390747,217.09997351336267L792.5238797332763,217.15759589042298L809.752659727478,219.3237057976603L826.9814397216796,220.28517201917907L844.2102197158813,221.1985744581264L861.438999710083,218.41020305866587L878.6677797042846,220.97546703335183L895.8965596984863,219.83806449921076L913.1253396926879,220.4328136885138L930.3541196868897,221.23627724583218L947.5828996810914,221.59351592359675L964.811679675293,222.9363931342318L982.0404596694945,223.06809712608194L999.2692396636961,225.3984784504635L1016.4980196578979,223.05677325076405L1033.7267996520995,228.45214347450982L1050.9555796463012,226.3601653320859L1068.1843596405029,223.83789998759275L1085.4131396347045,224.93460076261965L1102.6419196289062,223.89964469658898L1119.8706996231078,224.6675217971954L1137.0994796173095,225.0319018383137L1154.3282596115112,226.08074946086808L1171.5570396057128,227.01844457122357L1188.7858195999145,229.67260447765636L1206.0145995941161,229.81041674237505L1223.2433795883178,226.77772445817786L1240.4721595825195,228.35952641101548L1257.700939576721,227.52773812039538L1274.9297195709228,227.93522712175823L1292.1584995651244,228.2825461248644L1309.387279559326,228.9150683119062L1326.6160595535277,229.84531112876198L1343.8448395477294,231.42852731226375L1361.073619541931,233.4699040809245L1378.3023995361327,229.13521688529121L1395.5311795303344,230.76604550115246L1412.759959524536,229.98512939442273L1429.9887395187377,230.63453207939185L1447.2175195129394,230.78970628226395L1464.446299507141,230.52307866705166L1481.6750795013427,232.48495761837907L1498.9038594955443,232.9774308496518L1516.132639489746,235.1669708478922L1533.3614194839477,232.63761429006888L1550.5901994781493,237.94776959379647L1567.818979472351,235.87872004214015L1585.0477594665526,233.16130089599986L1602.2765394607543,233.38036622887623L1619.505319454956,231.9498468370831L1636.7340994491576,233.53524956161172L1653.9628794433593,233.76149637786057L1671.191659437561,233.769339841544L1688.4204394317626,235.19578705142473L1705.6492194259642,238.3721691831008L1722.877999420166,238.1358923621417L1740.1067794143676,235.70430829023383" fill="none"></path></g></g></g></g></g></g><g transform="translate(30, 378)" clip-path="url(#clip_1)"><clipPath id="clip_1"><rect width="1722" height="21"></rect></clipPath><g><g><line x1="0" y1="0" x2="0" y2="5" style="visibility: inherit;" fill="rgb(0, 0, 0)" stroke="rgb(204, 204, 204)" stroke-width="1px"></line><line x1="172.2877999420166" y1="0" x2="172.2877999420166" y2="5" style="visibility: inherit;" fill="rgb(0, 0, 0)" stroke="rgb(204, 204, 204)" stroke-width="1px"></line><line x1="344.5755998840332" y1="0" x2="344.5755998840332" y2="5" style="visibility: inherit;" fill="rgb(0, 0, 0)" stroke="rgb(204, 204, 204)" stroke-width="1px"></line><line x1="516.8633998260498" y1="0" x2="516.8633998260498" y2="5" style="visibility: inherit;" fill="rgb(0, 0, 0)" stroke="rgb(204, 204, 204)" stroke-width="1px"></line><line x1="689.1511997680664" y1="0" x2="689.1511997680664" y2="5" style="visibility: inherit;" fill="rgb(0, 0, 0)" stroke="rgb(204, 204, 204)" stroke-width="1px"></line><line x1="861.438999710083" y1="0" x2="861.438999710083" y2="5" style="visibility: inherit;" fill="rgb(0, 0, 0)" stroke="rgb(204, 204, 204)" stroke-width="1px"></line><line x1="1033.7267996520995" y1="0" x2="1033.7267996520995" y2="5" style="visibility: inherit;" fill="rgb(0, 0, 0)" stroke="rgb(204, 204, 204)" stroke-width="1px"></line><line x1="1206.0145995941161" y1="0" x2="1206.0145995941161" y2="5" style="visibility: inherit;" fill="rgb(0, 0, 0)" stroke="rgb(204, 204, 204)" stroke-width="1px"></line><line x1="1378.3023995361327" y1="0" x2="1378.3023995361327" y2="5" style="visibility: inherit;" fill="rgb(0, 0, 0)" stroke="rgb(204, 204, 204)" stroke-width="1px"></line><line x1="1550.5901994781493" y1="0" x2="1550.5901994781493" y2="5" style="visibility: inherit;" fill="rgb(0, 0, 0)" stroke="rgb(204, 204, 204)" stroke-width="1px"></line><line x1="1722.877999420166" y1="0" x2="1722.877999420166" y2="5" style="visibility: inherit;" fill="rgb(0, 0, 0)" stroke="rgb(204, 204, 204)" stroke-width="1px"></line></g><g transform="translate(0, 8)"><text style="text-anchor: middle; visibility: hidden; font-family: &quot;Helvetica Neue&quot;, sans-serif; font-size: 12px; font-weight: 200;" x="0" y="0" dx="0em" dy="0.95em" fill="rgb(50, 49, 63)" stroke="none" stroke-width="1px">-10</text><text style="text-anchor: middle; visibility: inherit; font-family: &quot;Helvetica Neue&quot;, sans-serif; font-size: 12px; font-weight: 200;" x="172.2877999420166" y="0" dx="0em" dy="0.95em" fill="rgb(50, 49, 63)" stroke="none" stroke-width="1px">0</text><text style="text-anchor: middle; visibility: inherit; font-family: &quot;Helvetica Neue&quot;, sans-serif; font-size: 12px; font-weight: 200;" x="344.5755998840332" y="0" dx="0em" dy="0.95em" fill="rgb(50, 49, 63)" stroke="none" stroke-width="1px">10</text><text style="text-anchor: middle; visibility: inherit; font-family: &quot;Helvetica Neue&quot;, sans-serif; font-size: 12px; font-weight: 200;" x="516.8633998260498" y="0" dx="0em" dy="0.95em" fill="rgb(50, 49, 63)" stroke="none" stroke-width="1px">20</text><text style="text-anchor: middle; visibility: inherit; font-family: &quot;Helvetica Neue&quot;, sans-serif; font-size: 12px; font-weight: 200;" x="689.1511997680664" y="0" dx="0em" dy="0.95em" fill="rgb(50, 49, 63)" stroke="none" stroke-width="1px">30</text><text style="text-anchor: middle; visibility: inherit; font-family: &quot;Helvetica Neue&quot;, sans-serif; font-size: 12px; font-weight: 200;" x="861.438999710083" y="0" dx="0em" dy="0.95em" fill="rgb(50, 49, 63)" stroke="none" stroke-width="1px">40</text><text style="text-anchor: middle; visibility: inherit; font-family: &quot;Helvetica Neue&quot;, sans-serif; font-size: 12px; font-weight: 200;" x="1033.7267996520995" y="0" dx="0em" dy="0.95em" fill="rgb(50, 49, 63)" stroke="none" stroke-width="1px">50</text><text style="text-anchor: middle; visibility: inherit; font-family: &quot;Helvetica Neue&quot;, sans-serif; font-size: 12px; font-weight: 200;" x="1206.0145995941161" y="0" dx="0em" dy="0.95em" fill="rgb(50, 49, 63)" stroke="none" stroke-width="1px">60</text><text style="text-anchor: middle; visibility: inherit; font-family: &quot;Helvetica Neue&quot;, sans-serif; font-size: 12px; font-weight: 200;" x="1378.3023995361327" y="0" dx="0em" dy="0.95em" fill="rgb(50, 49, 63)" stroke="none" stroke-width="1px">70</text><text style="text-anchor: middle; visibility: inherit; font-family: &quot;Helvetica Neue&quot;, sans-serif; font-size: 12px; font-weight: 200;" x="1550.5901994781493" y="0" dx="0em" dy="0.95em" fill="rgb(50, 49, 63)" stroke="none" stroke-width="1px">80</text><text style="text-anchor: middle; visibility: hidden; font-family: &quot;Helvetica Neue&quot;, sans-serif; font-size: 12px; font-weight: 200;" x="1722.877999420166" y="0" dx="0em" dy="0.95em" fill="rgb(50, 49, 63)" stroke="none" stroke-width="1px">90</text></g><line x1="0" y1="0" x2="1722.877999420166" y2="0" fill="rgb(0, 0, 0)" stroke="rgb(204, 204, 204)" stroke-width="1px"></line></g></g></g></g></svg>